<?xml version="1.0" encoding="UTF-8"?>
<svg id="Layer_1" data-name="Layer 1" xmlns="http://www.w3.org/2000/svg" viewBox="0 0 1000 1000">
  <defs>
    <style>
      .cls-1 {
        fill: #f2f2f2;
      }
    </style>
  </defs>
  <path class="cls-1" d="M559.14,600.15c-.29,1.16-1.07,2.16-2.04,2.86-1.21.87-1.57.9-2.11,1.09-6.47,1.99-13.37,2.3-20.04,1.16-3.8-.65-7.17-1.7-10.37-3.39-4.12-2.2-4.48-4.72-.9-7.63,1.75-1.41,3.88-2.71,6.01-3.13,6.4-1.26,12.84-2.37,19.31-2.96,6.13-.58,11.61,6.06,10.13,11.99Z"/>
  <path class="cls-1" d="M683.49,535.01c-1.45-16.09-5.18-31.48-15.28-44.59-6.08-7.9-14.01-12.6-24.25-13.11-9.46-.46-18.54.84-27.26,4.48-5.51,2.3-11.27,4.48-14.66,9.73-6.44,9.97-11.43,20.64-14.32,32.23-3.71,14.83-1.96,29.62.63,44.36,2.48,13.97,10.03,24.44,22.63,31.08,9.26,4.87,19.31,5.85,29.46,4.97,11.88-1.04,21.85-6.27,28.71-16.18,9.45-13.7,14.83-28.88,14.37-45.77,0-2.4.19-4.82-.03-7.21ZM626.2,559.41c-2.35,6.27-7.4,10.03-13.09,9.77-5.53-.26-10.36-4.35-11.83-10.76-.53-2.3-.88-4.64-1.17-6.98-.71-5.77-.74-11.63.21-17.37.58-3.43,1.49-6.78,3.05-10.01,4-8.27,11.69-9.7,18.48-3.62,4.52,4.04,6.94,9.01,7.4,14.98.64,8.2-.14,16.23-3.06,23.99Z"/>
  <path class="cls-1" d="M478.56,487.73c-4.89-5.57-11.14-9.09-18.19-11.27-12.72-3.91-25.62-3.62-38.55-1.75-8.44,1.24-15.75,4.81-21.3,11.51-15.01,18.27-25.01,38.77-26.58,62.61-.65,9.96,1.11,19.36,8.26,27.55,14.64,16.84,51.35,30.87,75.09,24.52,16.75-4.51,29.41-12.29,35.35-29.15,3.95-11.27,5.09-22.99,5.53-34.82,1.09-19.46-7.29-35.13-19.6-49.2ZM478.05,552.74c-.31,1.28-.65,2.52-1.09,3.75-2.33,6.67-7.29,10.91-14.52,11.48-6.43.51-11.18-2.73-14.52-8.1-7.49-12.01-3.56-32.96,7.81-41.29,6.77-4.96,15.88-2.46,19.67,5.03.74,1.49,1.38,3.01,1.91,4.55,2.72,7.9,2.69,16.47.73,24.59Z"/>
  <path class="cls-1" d="M387.74,267c1.25.22,2.5.43,3.75.66,9.27,1.77,17.33,6.12,24.77,11.74,8.02,6.05,14.73,13.45,21.2,21.07,14.8,17.44,26.86,36.7,37.49,56.88,4.52,8.58,8.64,17.38,12.9,26.09.36.73.71,1.05,1.57,1.05,12.74.07,25.47.16,38.21.3,5.19.06,10.38.23,15.57.35.74.02,1.29,0,1.59-.95,4.75-15.22,11.1-29.81,17.87-44.22,6.84-14.56,14.82-28.47,24.33-41.47,4.76-6.51,10.02-12.57,16.65-17.28,12.85-9.13,26.6-10.21,41-4.23,8.6,3.57,15.61,9.39,21.97,16.07,12.48,13.11,21.3,28.54,28.24,45.08,11.49,27.38,20.17,55.64,25.92,84.79,3.08,15.63,5.31,31.39,7.21,47.2,1.32,10.99,4.08,21.68,6.99,32.34,3.31,12.1,6.74,24.16,9.84,36.31,2.73,10.67,4.44,21.54,4.88,32.57.36,9.04-.38,17.99-2.43,26.82-.06.26-.13.52-.17.78-.02.13,0,.26.02.55.52,0,1.05,0,1.57,0,10.92.03,21.84.05,32.76.1,4,.02,7.99.17,11.87,1.27,6.55,1.86,10.52,6.12,11.87,12.81.05.24.18.47.27.7v4.26c-.22.89-.42,1.8-.68,2.68-1.88,6.33-6.47,9.66-12.62,11.07-2.32.53-4.73.86-7.11.9-8.57.13-17.13.13-25.7.12-8.26-.01-16.51-.08-24.77-.19-1.25-.02-1.96.38-2.48,1.5-.55,1.2-1.28,2.31-1.97,3.52,4.31.94,8.52,1.8,12.69,2.78,3.42.8,6.76,1.87,9.58,4.11,5.79,4.58,7.86,12.12,5.21,18.89-2.63,6.7-9.39,11.16-16.66,10.32-6.81-.79-13.55-2.18-20.31-3.35-4.45-.78-8.88-1.69-13.34-2.43-.65-.11-1.6.24-2.1.7-12.84,12.07-27.33,21.72-43.15,29.43-13.75,6.7-28.15,11.66-42.83,15.84-19.09,5.44-38.51,9.32-58.17,12.04-14.24,1.97-28.55,3.32-42.89,4.25-10.93.71-21.86,1.55-32.8,1.99-11.89.48-23.77.09-35.6-1.44-16.47-2.13-32.77-5.17-48.75-9.67-25-7.04-47.77-18.62-68.06-34.9-4.06-3.26-7.63-7.15-11.36-10.82-.71-.69-1.22-.98-2.27-.69-16.12,4.54-32.25,9.06-48.41,13.49-4.57,1.25-9.25,1.91-13.88.2-6.21-2.28-9.74-6.87-10.6-13.31-.83-6.23,1.44-11.31,6.57-15.03,4.1-2.97,8.82-4.46,13.62-5.8,10.76-3.01,21.5-6.06,32.25-9.09.37-.11.74-.24,1.21-.39-.92-1.93-1.82-3.8-2.71-5.67-.32-.68-.64-1.36-.96-2.04-.54-1.15-.8-2.75-1.7-3.32-.85-.54-2.39-.01-3.63.08-14.29,1.06-28.59,1.99-42.86,3.23-9.81.86-19.58,2.14-29.36,3.26-4.01.46-7.99,1.04-12.01-.09-7.65-2.15-12.52-8.6-12.25-16.46.27-7.85,5.8-14.3,13.5-15.83,10.33-2.05,20.78-3.13,31.25-4.02,10.92-.93,21.83-1.89,32.75-2.82,3.76-.32,7.52-.59,11.28-.89.83-.07,1.66-.17,2.58-.26-.21-2.66-.46-5.25-.6-7.85-1.07-19.48,1.72-38.38,8.49-56.69,4.15-11.22,7.2-22.73,8.6-34.63.98-8.26.9-16.56.82-24.86-.08-7.63-.19-15.26-.05-22.89.13-7.23.48-14.45.88-21.67.71-12.72,2.17-25.36,4.23-37.94,2.67-16.26,6.45-32.25,11.77-47.85,5.67-16.66,12.46-32.82,21.85-47.77,4.9-7.81,10.47-15.1,17.57-21.09,5.93-5,12.53-8.66,20.31-9.88.87-.14,1.75-.26,2.63-.39,1.78,0,3.55,0,5.33,0ZM759.14,619.92s0,.06,0,.09c8.61,0,17.22.05,25.83-.04,1.74-.02,3.5-.5,5.22-.88,1.35-.3,1.98-1.23,1.88-2.65-.09-1.34-.66-2.34-2.03-2.6-1.82-.35-3.67-.77-5.51-.8-8.25-.14-16.51-.17-24.76-.21-6.53-.03-13.05.03-19.58-.07-4.02-.06-7.06-2.4-7.93-5.9-.55-2.23-.09-4.39.58-6.54,2.47-7.89,3.56-16,3.58-24.25.03-10.98-1.54-21.78-4.2-32.38-3.14-12.5-6.64-24.92-10.05-37.35-3.17-11.6-6.12-23.25-7.53-35.21-1.91-16.12-4.24-32.18-7.48-48.09-5.71-28.02-14.18-55.18-25.4-81.47-5.54-12.99-12.47-25.2-21.79-35.91-5.12-5.89-10.68-11.28-17.67-14.97-6.86-3.63-14.06-5.18-21.71-3.12-6.24,1.68-11.15,5.53-15.55,10.08-5.4,5.58-9.79,11.93-13.94,18.45-14.55,22.87-25.45,47.45-33.92,73.14-1.49,4.52-4.12,7.72-8.91,8.73-1.59.34-3.26.5-4.88.49-5.23-.04-10.47-.26-15.7-.31-13.27-.14-26.54-.21-39.81-.34-1.45-.01-2.94-.11-4.35-.43-3.68-.85-5.57-3.59-7.11-6.81-4-8.35-7.93-16.75-12.21-24.95-12.24-23.44-26.31-45.66-44.52-65.02-5.89-6.27-12.27-11.95-19.96-15.97-4.32-2.26-8.86-3.9-13.76-4.22-6.04-.39-11.17,1.99-15.87,5.49-6.13,4.58-10.86,10.44-15.05,16.75-10.06,15.15-16.95,31.79-22.74,48.93-4.88,14.44-8.33,29.23-10.82,44.25-1.99,12-3.38,24.07-4.09,36.21-.37,6.29-.72,12.58-.83,18.88-.15,8.38-.15,16.77-.04,25.16.12,9.46.14,18.9-1.06,28.3-1.62,12.68-4.98,24.93-9.37,36.91-5.02,13.71-7.74,27.85-7.59,42.46.06,6.24.65,12.48,1.15,18.71.51,6.43-3.05,10.69-9.48,11.14-2.57.18-5.13.4-7.69.62-11.14.93-22.29,1.77-33.41,2.84-10.86,1.04-21.7,2.29-32.54,3.5-1.98.22-3.94.66-5.88,1.08-1.81.39-2.77,1.66-2.76,3.41.01,1.55.86,2.52,2.72,2.94.77.17,1.59.27,2.37.19,3.75-.41,7.48-.96,11.23-1.34,10.28-1.07,20.55-2.16,30.84-3.09,7.95-.72,15.92-1.21,23.89-1.78,5.62-.41,11.23-.92,16.86-1.13,4.96-.19,8.6,2.18,10.76,6.64,2.65,5.51,5.21,11.06,7.8,16.6.95,2.03,1.31,4.16.77,6.35-.9,3.67-3.49,5.62-6.96,6.6-12.92,3.64-25.86,7.24-38.76,10.97-2.79.81-5.48,1.99-8.12,3.22-1.7.8-2.02,1.89-1.55,3.37.47,1.48,1.7,2.29,3.44,2.08,1.62-.2,3.26-.43,4.84-.86,16.27-4.51,32.53-9.05,48.79-13.61,5.45-1.53,9.94-.14,13.87,3.95,3.77,3.93,7.57,7.91,11.84,11.27,18.59,14.61,39.36,25.11,62.11,31.5,15.04,4.22,30.38,7.09,45.87,9.16,11.43,1.53,22.91,1.93,34.4,1.46,10.94-.45,21.87-1.3,32.8-2,14.83-.96,29.62-2.4,44.33-4.52,18.67-2.7,37.11-6.5,55.23-11.76,15.14-4.39,29.93-9.69,43.92-17.05,12.75-6.71,24.48-14.85,34.95-24.79,3.64-3.45,7.96-4.94,12.95-4.03,8.37,1.53,16.72,3.17,25.09,4.7,2.48.46,4.99.8,7.5,1.04,1.96.19,3.3-.85,3.66-2.55.3-1.44-.53-2.76-2.24-3.48-.69-.29-1.4-.57-2.14-.73-6.88-1.51-13.77-3-20.66-4.47-6.1-1.3-8.67-7.31-5.39-12.59,2.08-3.35,4.09-6.75,6.14-10.12,2.86-4.69,7.03-7.18,12.53-7.22,8.52-.06,17.04-.01,25.56-.01Z"/>
</svg>
