<?xml version="1.0" encoding="UTF-8"?>
<svg id="Layer_1" data-name="Layer 1" xmlns="http://www.w3.org/2000/svg" viewBox="0 0 1000 1000">
  <defs>
    <style>
      .cls-1 {
        fill: #f2f2f2;
      }

      .cls-2 {
        fill: #070707;
      }
    </style>
  </defs>
  <path class="cls-2" d="M801.12,610.78c-2.7-.75-5.57-1.15-8.37-1.17-14.32-.12-28.63-.08-42.97-.12-3.87,0-4.2-.37-3.05-4.05,4.15-13.37,4.72-27.06,3.2-40.8-3.67-33.16-18.19-64.01-21.96-97.09-3.67-32.13-9.69-64.11-19.79-94.87-9.99-30.46-22.04-64.14-46.4-86.25-9.39-8.52-21.39-14.57-34.35-13.09-14.87,1.67-25.56,13.59-33.8,25.26-12.99,18.31-23.09,38.55-31.61,59.26-3.3,8-6.65,16.02-9.12,24.29-.52,1.75-1,3.95-2.52,5.07-.7.52-1.57.77-2.42.95-3.25.6-6.72.07-10.02.05-3.02,0-6.07-.05-9.09-.1-12.24,0-24.48-.28-36.75-.4-2.15,0-4.32.07-6.47-.05-1.32-.08-2.22-.65-2.82-1.82-1.45-2.8-2.6-5.8-3.95-8.67-1.9-3.95-3.82-7.87-5.82-11.77-11.87-23.24-25.34-46.07-42.17-66.06-10.17-12.04-21.69-24.36-36.73-30.11-.15-.05-.3-.13-.45-.17-3.6-1.32-7.37-2.2-11.19-2.4-15.02-.75-27.18,11.39-35.33,22.69-8.32,11.52-14.64,24.64-20.04,37.75-17.64,42.95-23.26,88.92-23.31,134.99-.03,13.07.85,26.48-.62,39.48-1.47,13.19-4.95,26.08-9.52,38.53-7.75,21.04-10.12,43.65-7.1,65.86.45,3.3-.72,4.1-3.72,4.35-19.94,1.6-39.88,3.22-59.76,5.1-7.55.7-15.07,1.75-22.49,3.2-5.95,1.17-9.22,6.12-8.57,11.67.62,5.17,5.15,8.74,11.19,8.79.82.03,1.65-.08,2.47-.18,10.09-1.17,20.19-2.65,30.31-3.52,17.56-1.5,35.18-2.62,52.74-3.95,2.95-.22,4.8.75,6,3.8,2.07,5.4,4.82,10.49,7.37,15.67,1.15,2.32.97,3.65-1.8,4.42-14.24,3.92-28.48,7.9-42.67,12.04-3,.87-6.02,2.25-8.54,4.07-3.67,2.65-4.67,7.12-3.2,11.14,1.37,3.82,4.9,6.45,9.29,6.45,2.45,0,4.97-.42,7.35-1.07,16.86-4.62,33.73-9.29,50.57-14.12,3.05-.87,5.15-.22,7.17,2.12,8.65,9.92,19.14,17.56,30.31,24.39,18.51,11.32,38.35,19.61,59.51,24.34,14.39,3.22,28.96,6.15,43.6,7.65,23.39,2.42,46.82.15,70.18-1.52,38.28-2.72,75.9-8.72,112.43-20.86,26.53-8.82,50.79-21.51,71.21-41.03,1.5-1.42,4.35-2.37,6.4-2.05,9.09,1.42,18.11,3.45,27.18,5.12,2.9.55,5.85,1.05,8.79,1.05,4.97-.05,8.97-3.55,9.89-8.15.9-4.6-1.52-9.24-6.15-11.22-2.27-.97-4.72-1.57-7.12-2.1-5.95-1.3-11.92-2.5-18.39-3.82-.92-.2-1.4-1.3-.9-2.1,2.5-3.97,4.72-7.35,6.6-10.89,1.42-2.67,4.25-4.27,7.27-4.25,17.41.2,34.85.25,52.27.15,3-.03,6.2-.52,8.94-1.62,3.97-1.57,5.95-4.97,5.77-9.32-.15-4.15-2.77-7.75-6.95-8.92ZM498.12,538.1c-.45,12.19-1.62,24.29-5.7,35.9-6.12,17.39-19.19,25.41-36.45,30.06-24.49,6.55-62.34-7.92-77.43-25.28-7.37-8.44-9.19-18.14-8.52-28.41,1.62-24.59,11.94-45.72,27.41-64.56,5.72-6.92,13.27-10.59,21.96-11.87,13.34-1.92,26.63-2.22,39.75,1.8,7.27,2.25,13.72,5.87,18.76,11.62,12.69,14.52,21.34,30.68,20.21,50.74ZM561.01,603.29c-.3,1.2-1.1,2.22-2.1,2.95-1.25.9-1.62.92-2.17,1.12-6.67,2.05-13.79,2.37-20.66,1.2-3.92-.67-7.4-1.75-10.69-3.5-4.25-2.27-4.62-4.87-.92-7.87,1.8-1.45,4-2.8,6.2-3.22,6.6-1.3,13.24-2.45,19.91-3.05,6.32-.6,11.97,6.25,10.44,12.37ZM689.26,543.55c.47,17.41-5.07,33.08-14.82,47.2-7.07,10.22-17.37,15.62-29.61,16.69-10.47.9-20.84-.1-30.38-5.12-12.99-6.85-20.79-17.64-23.34-32.06-2.67-15.19-4.47-30.46-.65-45.75,2.97-11.94,8.12-22.96,14.77-33.23,3.5-5.42,9.44-7.67,15.12-10.04,8.99-3.75,18.36-5.1,28.11-4.62,10.57.52,18.74,5.37,25.01,13.52,10.42,13.52,14.27,29.38,15.77,45.97.22,2.47.03,4.97.03,7.45Z"/>
  <path class="cls-1" d="M561.01,603.29c-.3,1.2-1.1,2.22-2.1,2.95-1.25.9-1.62.92-2.17,1.12-6.67,2.05-13.79,2.37-20.66,1.2-3.92-.67-7.4-1.75-10.69-3.5-4.25-2.27-4.62-4.87-.92-7.87,1.8-1.45,4-2.8,6.2-3.22,6.6-1.3,13.24-2.45,19.91-3.05,6.32-.6,11.97,6.25,10.44,12.37Z"/>
  <path class="cls-1" d="M689.26,543.55c.47,17.41-5.07,33.08-14.82,47.2-7.07,10.22-17.37,15.62-29.61,16.69-10.47.9-20.84-.1-30.38-5.12-12.99-6.85-20.79-17.64-23.34-32.06-2.67-15.19-4.47-30.46-.65-45.75,2.97-11.94,8.12-22.96,14.77-33.23,3.5-5.42,9.44-7.67,15.12-10.04,8.99-3.75,18.36-5.1,28.11-4.62,10.57.52,18.74,5.37,25.01,13.52,10.42,13.52,14.27,29.38,15.77,45.97.22,2.47.03,4.97.03,7.45Z"/>
  <path class="cls-1" d="M498.12,538.1c-.45,12.19-1.62,24.29-5.7,35.9-6.12,17.39-19.19,25.41-36.45,30.06-24.49,6.55-62.34-7.92-77.43-25.28-7.37-8.44-9.19-18.14-8.52-28.41,1.62-24.59,11.94-45.72,27.41-64.56,5.72-6.92,13.27-10.59,21.96-11.87,13.34-1.92,26.63-2.22,39.75,1.8,7.27,2.25,13.72,5.87,18.76,11.62,12.69,14.52,21.34,30.68,20.21,50.74Z"/>
  <g>
    <path class="cls-2" d="M603.27,553.05c-.73-5.95-.77-11.99.22-17.91.59-3.54,1.53-6.99,3.14-10.33,4.12-8.52,12.05-10,19.06-3.73,4.66,4.17,7.16,9.29,7.64,15.45.66,8.46-.16,16.74-3.16,24.74-2.43,6.47-7.64,10.35-13.5,10.07-5.69-.27-10.67-4.48-12.2-11.09-.55-2.37-.9-4.78-1.2-7.2Z"/>
    <path class="cls-2" d="M476.63,529.04c-.55-1.59-1.2-3.16-1.97-4.69-3.9-7.73-13.3-10.3-20.28-5.19-11.73,8.58-15.78,30.2-8.06,42.58,3.45,5.54,8.35,8.87,14.98,8.35,7.44-.58,12.56-4.95,14.97-11.84.44-1.26.8-2.55,1.12-3.86,2.01-8.37,2.05-17.21-.75-25.36Z"/>
  </g>
</svg>
